<mxfile host="app.diagrams.net" modified="2020-08-29T16:08:22.366Z" agent="5.0 (Windows NT 10.0; Win64; x64) AppleWebKit/537.36 (KHTML, like Gecko) Chrome/85.0.4183.83 Safari/537.36" etag="KQtcmr_zaXrNYNMsW5os" version="13.6.5" type="github">
  <diagram id="RYN1n2g2jfMX47vTczhO" name="Page-1">
    <mxGraphModel dx="1673" dy="908" grid="1" gridSize="10" guides="1" tooltips="1" connect="1" arrows="1" fold="1" page="1" pageScale="1" pageWidth="850" pageHeight="1100" math="0" shadow="0">
      <root>
        <mxCell id="0" />
        <mxCell id="1" parent="0" />
        <mxCell id="VGywDmDXUQzYWjtsK35J-93" style="edgeStyle=orthogonalEdgeStyle;rounded=0;orthogonalLoop=1;jettySize=auto;html=1;" edge="1" parent="1" source="VGywDmDXUQzYWjtsK35J-1" target="VGywDmDXUQzYWjtsK35J-64">
          <mxGeometry relative="1" as="geometry" />
        </mxCell>
        <mxCell id="VGywDmDXUQzYWjtsK35J-1" value="" style="html=1;shadow=0;dashed=0;shape=mxgraph.bootstrap.rrect;align=center;rSize=5;strokeColor=#d6b656;fillColor=#fff2cc;spacingTop=30;whiteSpace=wrap;" vertex="1" parent="1">
          <mxGeometry x="690" y="65" width="600" height="350" as="geometry" />
        </mxCell>
        <mxCell id="VGywDmDXUQzYWjtsK35J-2" value="Servicios Nube" style="html=1;shadow=0;dashed=0;shape=mxgraph.bootstrap.topButton;rSize=5;strokeColor=none;fillColor=#FDF8E4;fontColor=#F2AE43;fontSize=14;fontStyle=1;align=left;spacingLeft=10;whiteSpace=wrap;resizeWidth=1;" vertex="1" parent="VGywDmDXUQzYWjtsK35J-1">
          <mxGeometry width="600" height="30" relative="1" as="geometry" />
        </mxCell>
        <mxCell id="VGywDmDXUQzYWjtsK35J-3" value="API Create Shooping" style="shadow=0;dashed=0;html=1;strokeColor=none;labelPosition=center;verticalLabelPosition=bottom;verticalAlign=top;align=center;shape=mxgraph.mscae.cloud.api_management;fillColor=#0079D6;pointerEvents=1;fontColor=none;" vertex="1" parent="VGywDmDXUQzYWjtsK35J-1">
          <mxGeometry x="60.636363636363626" y="242.83333333333337" width="28.36363636363636" height="29.166666666666668" as="geometry" />
        </mxCell>
        <mxCell id="VGywDmDXUQzYWjtsK35J-4" value="API ProductShopping" style="shadow=0;dashed=0;html=1;strokeColor=none;labelPosition=center;verticalLabelPosition=bottom;verticalAlign=top;align=center;shape=mxgraph.mscae.cloud.api_management;fillColor=#0079D6;pointerEvents=1;fontColor=none;" vertex="1" parent="VGywDmDXUQzYWjtsK35J-1">
          <mxGeometry x="274.45454545454544" y="244.5" width="28.36363636363636" height="31.666666666666668" as="geometry" />
        </mxCell>
        <mxCell id="VGywDmDXUQzYWjtsK35J-5" value="API RestFul" style="shadow=0;dashed=0;html=1;strokeColor=none;labelPosition=center;verticalLabelPosition=bottom;verticalAlign=top;align=center;shape=mxgraph.mscae.cloud.api_management;fillColor=#0079D6;pointerEvents=1;fontColor=none;" vertex="1" parent="VGywDmDXUQzYWjtsK35J-1">
          <mxGeometry x="103.4121846739648" y="96" width="28.12946216087577" height="40.833333333333336" as="geometry" />
        </mxCell>
        <mxCell id="VGywDmDXUQzYWjtsK35J-6" value="API Products&amp;nbsp;" style="shadow=0;dashed=0;html=1;strokeColor=none;labelPosition=center;verticalLabelPosition=bottom;verticalAlign=top;align=center;shape=mxgraph.mscae.cloud.api_management;fillColor=#0079D6;pointerEvents=1;fontColor=none;" vertex="1" parent="VGywDmDXUQzYWjtsK35J-1">
          <mxGeometry x="440.0034507377439" y="95.99666666666668" width="28.12946216087577" height="40.833333333333336" as="geometry" />
        </mxCell>
        <mxCell id="VGywDmDXUQzYWjtsK35J-7" value="API Create bill NaoService" style="shadow=0;dashed=0;html=1;strokeColor=none;labelPosition=center;verticalLabelPosition=bottom;verticalAlign=top;align=center;shape=mxgraph.mscae.cloud.api_management;fillColor=#0079D6;pointerEvents=1;fontColor=none;" vertex="1" parent="VGywDmDXUQzYWjtsK35J-1">
          <mxGeometry x="463.16254164683477" y="235.91666666666669" width="28.12946216087577" height="40.833333333333336" as="geometry" />
        </mxCell>
        <mxCell id="VGywDmDXUQzYWjtsK35J-8" value="" style="html=1;shadow=0;dashed=0;shape=mxgraph.bootstrap.rrect;align=center;rSize=5;strokeColor=#E0F0D6;fillColor=#ffffff;fontColor=#f0f0f0;spacingBottom=30;whiteSpace=wrap;" vertex="1" parent="1">
          <mxGeometry x="10" width="428" height="178" as="geometry" />
        </mxCell>
        <mxCell id="VGywDmDXUQzYWjtsK35J-9" value="Proceso Actual" style="html=1;shadow=0;dashed=0;shape=mxgraph.bootstrap.bottomButton;rSize=5;strokeColor=none;fillColor=#E0F0D6;fontColor=#59B958;fontSize=14;fontStyle=1;align=left;spacingLeft=10;whiteSpace=wrap;resizeWidth=1;" vertex="1" parent="VGywDmDXUQzYWjtsK35J-8">
          <mxGeometry y="1" width="428" height="30" relative="1" as="geometry">
            <mxPoint y="-30" as="offset" />
          </mxGeometry>
        </mxCell>
        <mxCell id="VGywDmDXUQzYWjtsK35J-10" value="Login" style="text;html=1;resizable=0;points=[];autosize=1;align=left;verticalAlign=top;spacingTop=-4;" vertex="1" parent="VGywDmDXUQzYWjtsK35J-8">
          <mxGeometry x="178" y="35.5" width="40" height="20" as="geometry" />
        </mxCell>
        <mxCell id="VGywDmDXUQzYWjtsK35J-84" value="" style="aspect=fixed;pointerEvents=1;shadow=0;dashed=0;html=1;strokeColor=none;labelPosition=center;verticalLabelPosition=bottom;verticalAlign=top;align=center;fillColor=#00188D;shape=mxgraph.azure.computer" vertex="1" parent="VGywDmDXUQzYWjtsK35J-8">
          <mxGeometry x="249" y="87" width="50" height="45" as="geometry" />
        </mxCell>
        <mxCell id="VGywDmDXUQzYWjtsK35J-11" style="edgeStyle=orthogonalEdgeStyle;rounded=0;orthogonalLoop=1;jettySize=auto;html=1;entryX=0;entryY=0.5;entryDx=0;entryDy=0;entryPerimeter=0;" edge="1" parent="1" source="VGywDmDXUQzYWjtsK35J-12">
          <mxGeometry relative="1" as="geometry">
            <Array as="points">
              <mxPoint x="155" y="63" />
              <mxPoint x="155" y="99" />
            </Array>
            <mxPoint x="254" y="99.00000000000011" as="targetPoint" />
          </mxGeometry>
        </mxCell>
        <mxCell id="VGywDmDXUQzYWjtsK35J-12" value="Client" style="aspect=fixed;perimeter=ellipsePerimeter;html=1;align=center;shadow=0;dashed=0;spacingTop=3;image;image=img/lib/active_directory/user_accounts.svg;" vertex="1" parent="1">
          <mxGeometry x="48" y="38" width="50" height="48.5" as="geometry" />
        </mxCell>
        <mxCell id="VGywDmDXUQzYWjtsK35J-50" style="edgeStyle=orthogonalEdgeStyle;rounded=0;orthogonalLoop=1;jettySize=auto;html=1;noLabel=1;fontColor=none;" edge="1" parent="1">
          <mxGeometry relative="1" as="geometry">
            <mxPoint x="104" y="252" as="targetPoint" />
            <Array as="points">
              <mxPoint x="279" y="202" />
              <mxPoint x="104" y="202" />
            </Array>
            <mxPoint x="279" y="126" as="sourcePoint" />
          </mxGeometry>
        </mxCell>
        <mxCell id="VGywDmDXUQzYWjtsK35J-64" value="" style="html=1;shadow=0;dashed=0;shape=mxgraph.bootstrap.rrect;align=center;rSize=5;strokeColor=#6c8ebf;fillColor=#dae8fc;spacingBottom=30;whiteSpace=wrap;direction=west;" vertex="1" parent="1">
          <mxGeometry x="720" y="450" width="510" height="570" as="geometry" />
        </mxCell>
        <mxCell id="VGywDmDXUQzYWjtsK35J-65" value="Base de datos" style="html=1;shadow=0;dashed=0;shape=mxgraph.bootstrap.bottomButton;rSize=5;strokeColor=none;fillColor=#E0F0D6;fontColor=#59B958;fontSize=14;fontStyle=1;align=left;spacingLeft=10;whiteSpace=wrap;resizeWidth=1;" vertex="1" parent="VGywDmDXUQzYWjtsK35J-64">
          <mxGeometry y="1" width="502.80564263322884" height="30" relative="1" as="geometry">
            <mxPoint y="-30" as="offset" />
          </mxGeometry>
        </mxCell>
        <mxCell id="VGywDmDXUQzYWjtsK35J-90" value="" style="image;html=1;image=img/lib/clip_art/computers/Database_128x128.png" vertex="1" parent="VGywDmDXUQzYWjtsK35J-64">
          <mxGeometry x="89" y="144.91525423728814" width="80" height="77.28813559322033" as="geometry" />
        </mxCell>
        <mxCell id="VGywDmDXUQzYWjtsK35J-91" value="" style="image;html=1;image=img/lib/clip_art/computers/Database_128x128.png" vertex="1" parent="VGywDmDXUQzYWjtsK35J-64">
          <mxGeometry x="220" y="144.91525423728814" width="80" height="77.28813559322033" as="geometry" />
        </mxCell>
        <mxCell id="VGywDmDXUQzYWjtsK35J-92" value="" style="image;html=1;image=img/lib/clip_art/computers/Database_128x128.png" vertex="1" parent="VGywDmDXUQzYWjtsK35J-64">
          <mxGeometry x="370" y="144.91525423728814" width="80" height="77.28813559322033" as="geometry" />
        </mxCell>
        <mxCell id="VGywDmDXUQzYWjtsK35J-96" value="" style="aspect=fixed;html=1;points=[];align=center;image;fontSize=12;image=img/lib/mscae/Cache_Redis_Product.svg;" vertex="1" parent="VGywDmDXUQzYWjtsK35J-64">
          <mxGeometry x="390" y="241.52542372881356" width="48.30508474576271" height="40.57627118644068" as="geometry" />
        </mxCell>
        <mxCell id="VGywDmDXUQzYWjtsK35J-97" value="" style="aspect=fixed;html=1;points=[];align=center;image;fontSize=12;image=img/lib/mscae/Azure_Database_for_PostgreSQL_servers.svg;" vertex="1" parent="VGywDmDXUQzYWjtsK35J-64">
          <mxGeometry x="244" y="237.66101694915253" width="36.71186440677966" height="48.30508474576271" as="geometry" />
        </mxCell>
        <mxCell id="VGywDmDXUQzYWjtsK35J-98" value="" style="dashed=0;outlineConnect=0;html=1;align=center;labelPosition=center;verticalLabelPosition=bottom;verticalAlign=top;shape=mxgraph.weblogos.mongodb" vertex="1" parent="VGywDmDXUQzYWjtsK35J-64">
          <mxGeometry x="109" y="241.52542372881356" width="41.2" height="38.644067796610166" as="geometry" />
        </mxCell>
        <mxCell id="VGywDmDXUQzYWjtsK35J-99" value="Mongo" style="text;html=1;resizable=0;points=[];autosize=1;align=left;verticalAlign=top;spacingTop=-4;" vertex="1" parent="VGywDmDXUQzYWjtsK35J-64">
          <mxGeometry x="103.99649484536076" y="309.153217763124" width="50" height="20" as="geometry" />
        </mxCell>
        <mxCell id="VGywDmDXUQzYWjtsK35J-100" value="PostgreSQL" style="text;html=1;resizable=0;points=[];autosize=1;align=left;verticalAlign=top;spacingTop=-4;" vertex="1" parent="VGywDmDXUQzYWjtsK35J-64">
          <mxGeometry x="231.99649484536076" y="309.153217763124" width="80" height="20" as="geometry" />
        </mxCell>
        <mxCell id="VGywDmDXUQzYWjtsK35J-101" value="Redis" style="text;html=1;resizable=0;points=[];autosize=1;align=left;verticalAlign=top;spacingTop=-4;" vertex="1" parent="VGywDmDXUQzYWjtsK35J-64">
          <mxGeometry x="394.99649484536076" y="309.153217763124" width="50" height="20" as="geometry" />
        </mxCell>
        <mxCell id="VGywDmDXUQzYWjtsK35J-94" style="edgeStyle=orthogonalEdgeStyle;rounded=0;orthogonalLoop=1;jettySize=auto;html=1;" edge="1" parent="1" source="VGywDmDXUQzYWjtsK35J-20" target="VGywDmDXUQzYWjtsK35J-1">
          <mxGeometry relative="1" as="geometry" />
        </mxCell>
        <mxCell id="VGywDmDXUQzYWjtsK35J-14" value="&#xa;&#xa;&lt;span style=&quot;color: rgb(0, 0, 0); font-family: helvetica; font-size: 12px; font-style: normal; font-weight: 700; letter-spacing: normal; text-align: left; text-indent: 0px; text-transform: none; word-spacing: 0px; background-color: rgb(248, 249, 250); display: inline; float: none;&quot;&gt;Client Tier&lt;/span&gt;&#xa;&#xa;" style="html=1;shadow=0;dashed=0;shape=mxgraph.bootstrap.rrect;align=center;rSize=5;strokeColor=#6c8ebf;fillColor=#dae8fc;spacingBottom=30;whiteSpace=wrap;direction=west;" vertex="1" parent="1">
          <mxGeometry y="230" width="638" height="786" as="geometry" />
        </mxCell>
        <mxCell id="VGywDmDXUQzYWjtsK35J-15" value="Ingreso y validaciones" style="html=1;shadow=0;dashed=0;shape=mxgraph.bootstrap.bottomButton;rSize=5;strokeColor=none;fillColor=#E0F0D6;fontColor=#59B958;fontSize=14;fontStyle=1;align=left;spacingLeft=10;whiteSpace=wrap;resizeWidth=1;" vertex="1" parent="VGywDmDXUQzYWjtsK35J-14">
          <mxGeometry y="1" width="629" height="30" relative="1" as="geometry">
            <mxPoint y="-30" as="offset" />
          </mxGeometry>
        </mxCell>
        <mxCell id="VGywDmDXUQzYWjtsK35J-16" value="Ingreso al Portal&amp;nbsp;" style="html=1;strokeColor=none;fillColor=#0079D6;labelPosition=center;verticalLabelPosition=middle;verticalAlign=top;align=center;fontSize=12;outlineConnect=0;spacingTop=-6;fontColor=#FFFFFF;shape=mxgraph.sitemap.page;" vertex="1" parent="VGywDmDXUQzYWjtsK35J-14">
          <mxGeometry x="22.05" y="20.76" width="587.95" height="117.66" as="geometry" />
        </mxCell>
        <mxCell id="VGywDmDXUQzYWjtsK35J-17" value="Aplicacion SPA Angular" style="text;html=1;resizable=0;points=[];autosize=1;align=left;verticalAlign=top;spacingTop=-4;" vertex="1" parent="VGywDmDXUQzYWjtsK35J-14">
          <mxGeometry x="42.05857982464592" y="81.798950877537" width="140" height="20" as="geometry" />
        </mxCell>
        <mxCell id="VGywDmDXUQzYWjtsK35J-20" value="" style="html=1;shadow=0;dashed=0;shape=mxgraph.bootstrap.rrect;align=center;rSize=5;strokeColor=#F2DEDF;fillColor=#ffffff;fontColor=#f0f0f0;spacingTop=30;whiteSpace=wrap;" vertex="1" parent="VGywDmDXUQzYWjtsK35J-14">
          <mxGeometry x="21" y="171" width="589" height="409" as="geometry" />
        </mxCell>
        <mxCell id="VGywDmDXUQzYWjtsK35J-21" value="Listado Validaciones&amp;nbsp; 3 - Tier Architecture" style="html=1;shadow=0;dashed=0;shape=mxgraph.bootstrap.topButton;rSize=5;strokeColor=none;fillColor=#F2DEDF;fontColor=#DB524C;fontSize=14;fontStyle=1;align=left;spacingLeft=10;whiteSpace=wrap;resizeWidth=1;" vertex="1" parent="VGywDmDXUQzYWjtsK35J-20">
          <mxGeometry width="589" height="30" relative="1" as="geometry" />
        </mxCell>
        <mxCell id="VGywDmDXUQzYWjtsK35J-22" value="Client Tier" style="text;html=1;resizable=0;points=[];autosize=1;align=left;verticalAlign=top;spacingTop=-4;fontStyle=1" vertex="1" parent="VGywDmDXUQzYWjtsK35J-20">
          <mxGeometry x="138.99915662650602" y="77.9980487804878" width="70" height="20" as="geometry" />
        </mxCell>
        <mxCell id="VGywDmDXUQzYWjtsK35J-87" value="" style="points=[[0.35,0,0],[0.98,0.51,0],[1,0.71,0],[0.67,1,0],[0,0.795,0],[0,0.65,0]];verticalLabelPosition=bottom;html=1;verticalAlign=top;aspect=fixed;align=center;pointerEvents=1;shape=mxgraph.cisco19.user;fillColor=#005073;strokeColor=none;" vertex="1" parent="VGywDmDXUQzYWjtsK35J-20">
          <mxGeometry x="319" y="39" width="98" height="98" as="geometry" />
        </mxCell>
        <mxCell id="VGywDmDXUQzYWjtsK35J-102" value="Web Framework" style="rounded=1;arcSize=10;dashed=1;strokeColor=#000000;fillColor=none;gradientColor=none;dashPattern=8 3 1 3;strokeWidth=2;" vertex="1" parent="VGywDmDXUQzYWjtsK35J-20">
          <mxGeometry x="319" y="189" width="121" height="71" as="geometry" />
        </mxCell>
        <mxCell id="VGywDmDXUQzYWjtsK35J-105" value="Logic Tier" style="text;html=1;resizable=0;points=[];autosize=1;align=left;verticalAlign=top;spacingTop=-4;fontStyle=1" vertex="1" parent="VGywDmDXUQzYWjtsK35J-20">
          <mxGeometry x="139" y="214.5" width="70" height="20" as="geometry" />
        </mxCell>
        <mxCell id="VGywDmDXUQzYWjtsK35J-106" value="" style="verticalLabelPosition=bottom;html=1;verticalAlign=top;align=center;strokeColor=none;fillColor=#00BEF2;shape=mxgraph.azure.sql_database;" vertex="1" parent="VGywDmDXUQzYWjtsK35J-20">
          <mxGeometry x="359" y="319" width="37.5" height="50" as="geometry" />
        </mxCell>
        <mxCell id="VGywDmDXUQzYWjtsK35J-107" value="Data Tier" style="text;html=1;resizable=0;points=[];autosize=1;align=left;verticalAlign=top;spacingTop=-4;fontStyle=1" vertex="1" parent="VGywDmDXUQzYWjtsK35J-20">
          <mxGeometry x="139" y="334" width="70" height="20" as="geometry" />
        </mxCell>
        <mxCell id="VGywDmDXUQzYWjtsK35J-45" value="" style="html=1;shadow=0;dashed=0;shape=mxgraph.bootstrap.rrect;align=center;rSize=5;strokeColor=#FDF8E4;fillColor=#ffffff;fontColor=#f0f0f0;spacingTop=30;whiteSpace=wrap;" vertex="1" parent="VGywDmDXUQzYWjtsK35J-14">
          <mxGeometry x="22" y="586" width="592" height="154" as="geometry" />
        </mxCell>
        <mxCell id="VGywDmDXUQzYWjtsK35J-46" value="Reglas" style="html=1;shadow=0;dashed=0;shape=mxgraph.bootstrap.topButton;rSize=5;strokeColor=none;fillColor=#FDF8E4;fontColor=#F2AE43;fontSize=14;fontStyle=1;align=left;spacingLeft=10;whiteSpace=wrap;resizeWidth=1;" vertex="1" parent="VGywDmDXUQzYWjtsK35J-45">
          <mxGeometry width="588" height="30" relative="1" as="geometry" />
        </mxCell>
        <mxCell id="VGywDmDXUQzYWjtsK35J-47" value="* Interfaz de usuario - Debe validar la entrada del usuario, proporcionar mensajes de error, proteger capas&lt;br&gt;inferiores contra la entrada de usuario no valida.&lt;br&gt;&lt;br&gt;Cliente de aplicación Navegador Web&lt;br&gt;Servidor de Aplicaciones&amp;nbsp;&lt;br&gt;Servidor de Datos : Bases de datos" style="text;html=1;resizable=0;points=[];autosize=1;align=left;verticalAlign=top;spacingTop=-4;" vertex="1" parent="VGywDmDXUQzYWjtsK35J-45">
          <mxGeometry x="12" y="43" width="580" height="90" as="geometry" />
        </mxCell>
      </root>
    </mxGraphModel>
  </diagram>
</mxfile>
